<svg class="prefix__icon" viewBox="0 0 1280 1024" xmlns="http://www.w3.org/2000/svg" width="250" height="200"><path d="M693.93 682.325l5.12-18.432c6.03-21.845 3.755-42.097-6.37-57.002-9.33-13.654-24.918-21.732-43.92-22.642l-358.968-4.779c-2.39-.114-4.437-1.251-5.689-3.186-1.251-1.934-1.593-4.437-.796-6.826 1.137-3.641 4.665-6.486 8.305-6.713l362.269-4.779c43.008-2.048 89.543-38.457 105.813-82.944l20.708-56.434c.569-1.592.796-3.185.796-4.778 0-.91-.114-1.82-.227-2.617-23.439-110.137-117.647-192.626-230.173-192.626-103.765 0-191.83 69.973-223.46 167.253-20.366-16.042-46.534-24.462-74.524-21.504-49.834 5.12-89.77 46.99-94.777 99.1-1.251 13.54-.227 26.511 2.731 38.8C79.417 504.717 14.222 574.35 14.222 659.91c0 7.737.57 15.36 1.593 22.756.569 3.64 3.413 6.371 6.94 6.371l662.756.114h.228c3.754-.341 7.168-2.958 8.192-6.827z" fill="#F78100"/><path d="M813.511 422.798c-3.3 0-6.599.114-9.899.228-.568 0-1.024.114-1.592.341-1.707.683-3.072 2.048-3.641 3.982l-14.109 50.973c-6.03 21.845-3.754 42.098 6.372 57.002 9.33 13.768 24.917 21.732 43.918 22.642l76.572 4.779c2.276.114 4.21 1.251 5.462 3.072 1.251 1.934 1.593 4.437.796 6.827-1.251 3.64-4.665 6.485-8.306 6.712l-79.53 4.78c-43.122 2.047-89.657 38.456-106.041 82.943l-5.803 15.701c-1.024 2.845.91 5.917 3.755 6.03h273.863c3.3 0 6.144-2.275 7.054-5.46 4.779-17.636 7.282-36.296 7.282-55.524.114-113.21-87.723-205.028-196.153-205.028z" fill="#FBAC42"/></svg>