<svg class="prefix__icon" viewBox="0 0 1024 1024" xmlns="http://www.w3.org/2000/svg" width="200" height="200"><path d="M426.112 488.939l-46.613 46.57a64.043 64.043 0 00-70.102 9.92l-2.752 2.582-120.661 120.682a64 64 0 00-2.603 87.766l2.603 2.752 90.496 90.496a64 64 0 0087.787 2.581l2.73-2.56L487.68 729.024c13.397-13.397 19.605-31.253 18.645-48.79l51.627-51.647a128.043 128.043 0 01-25.024 145.706L412.245 894.976a128 128 0 01-181.013 0l-90.517-90.517a128 128 0 010-181.014l120.682-120.682a128.043 128.043 0 01164.694-13.824zm378.347-348.224l90.517 90.517a128 128 0 010 181.013L774.293 532.928a128.043 128.043 0 01-145.706 25.024l51.648-51.627a63.85 63.85 0 0046.08-16.064l2.709-2.581 120.683-120.683a64 64 0 002.581-87.786l-2.56-2.731-90.517-90.496a64 64 0 00-87.787-2.603l-2.73 2.603L548.01 306.645a64.021 64.021 0 00-12.502 72.854l-46.57 46.613a128.043 128.043 0 0113.824-164.715l120.682-120.682a128 128 0 01181.014 0z" fill="#333"/><path d="M624.939 380.587a8.533 8.533 0 0112.074 0l33.195 33.173a8.533 8.533 0 010 12.075L425.813 670.208a8.533 8.533 0 01-12.074 0l-33.195-33.195a8.533 8.533 0 010-12.074l244.395-244.352z" fill="#333"/></svg>