<?xml version="1.0" standalone="no"?><!DOCTYPE svg PUBLIC "-//W3C//DTD SVG 1.1//EN" "http://www.w3.org/Graphics/SVG/1.1/DTD/svg11.dtd"><svg t="1769195421120" class="icon" viewBox="0 0 1024 1024" version="1.1" xmlns="http://www.w3.org/2000/svg" p-id="6694" xmlns:xlink="http://www.w3.org/1999/xlink" width="200" height="200"><path d="M509.945713 338.983481c-95.924723 0-173.98252 78.033237-173.98252 173.934424 0 95.913467 78.056774 173.946704 173.98252 173.946704 27.333532 0 53.132104-6.514367 76.17082-17.796318l-0.024559-0.057305c6.245238-3.169179 10.526751-9.629311 10.526751-17.10354 0-10.598382-8.590656-19.237133-19.213597-19.237133-2.492774 0-4.866844 0.490164-7.051603 1.356904l-0.101307-0.225127c-18.196431 9.087982-38.614459 14.351869-60.306504 14.351869-74.587765 0-135.248334-60.662615-135.248334-135.238101 0-74.564229 60.660568-135.201262 135.248334-135.201262 74.588789 0 135.296429 60.637032 135.296429 135.201262 0 13.313214-2.029216 26.164916-5.616928 38.319747l0.344854 0.134053c-0.36532 1.479701-0.580215 3.019777-0.580215 4.611018 0 10.597359 8.589632 19.190061 19.212574 19.190061 7.319709 0 13.675464-4.081968 16.918321-10.090822l0.334621 0.12996c0.330528-1.049912 0.652869-2.104941 0.963954-3.163039 0.152473-0.454348 0.279363-0.919952 0.398066-1.38965 4.343935-15.180747 6.710842-31.182186 6.710842-47.740304C683.928233 417.016719 605.896018 338.983481 509.945713 338.983481zM921.639193 416.886759l-66.230424 0c-3.422959-12.533454-7.649214-25.137517-12.888542-38.309514l-3.870144-9.299807c-5.098111-11.824303-10.952446-23.461341-17.326621-34.673707l46.807049-46.806026c4.814656-4.816702 7.481392-11.212366 7.481392-18.010189 0-6.797823-2.665713-13.19451-7.481392-18.010189l-96.986915-96.964402c-9.655917-9.653871-26.437116-9.653871-36.043914 0l-46.806026 46.806026c-11.375072-6.467295-23.36822-12.438287-36.774555-18.24555l-8.685823-3.540639c-11.992125-4.721535-24.311709-8.851599-36.820604-12.298094L606.012675 101.353362c0-14.043854-11.42419-25.468045-25.492604-25.468045L443.383738 75.885318c-14.068414 0-25.491581 11.447726-25.491581 25.468045l0 66.185398c-12.510942 3.445472-24.856108 7.553023-36.775578 12.298094l-10.763135 4.460592c-11.800767 5.098111-23.462365 10.927887-34.697243 17.324574l-46.828538-46.806026c-9.630335-9.630335-26.390044-9.630335-36.042891 0l-96.964402 96.964402c-4.815679 4.792143-7.482415 11.212366-7.482415 18.010189 0 6.797823 2.6432 13.169951 7.482415 18.010189l46.806026 46.806026c-6.467295 11.376095-12.462846 23.462365-18.410302 37.199227l-3.422959 8.28571c-4.744048 11.94403-8.827039 24.263613-12.249999 36.797068l-66.23247 0c-14.043854 0-25.469068 11.44875-25.469068 25.469068l0 137.137357c0 14.020318 11.425214 25.443485 25.469068 25.443485l66.23247 0c3.446495 12.580526 7.694239 25.209148 12.958126 38.522362l3.799536 9.110495c5.146207 11.848862 10.952446 23.462365 17.325597 34.626635l-46.782489 46.817282c-9.937326 9.91379-9.937326 26.106588 0 36.020378l96.963379 96.963379c9.630335 9.582239 26.390044 9.629311 36.019355 0l46.828538-46.830585c11.234879 6.4192 22.825868 12.226462 34.55705 17.325597l7.9296 3.304256 3.0208 1.226944c11.94403 4.720511 24.26566 8.828063 36.775578 12.226462l0 66.184375c0 14.068414 11.423167 25.492604 25.491581 25.492604L580.56612 945.9289c14.07046 0 25.492604-11.472286 25.492604-25.492604l0-66.184375c12.558014-3.445472 25.137517-7.648191 38.237883-12.840446l9.347902-3.870144c11.849886-5.146207 23.463388-10.95347 34.697243-17.373693l46.830585 46.830585c9.606799 9.582239 26.387997 9.629311 36.017308 0l97.011474-96.963379c9.914814-9.91379 9.914814-26.106588 0-36.020378l-46.829562-46.817282c6.420223-11.259438 12.370749-23.202445 18.081821-36.420491l1.509377-3.588735 2.220574-5.475711c4.744048-12.013615 8.850575-24.335245 12.272511-36.775578l66.233494 0c14.043854 0 25.468045-11.400654 25.468045-25.443485L947.157379 442.355827C947.109284 428.335509 935.685094 416.886759 921.639193 416.886759zM906.604778 564.40965l-83.060741 0-4.626367 19.685341c-3.471055 14.635325-8.04728 29.05678-13.972223 43.99705l-1.415232 3.540639-2.031263 4.792143c-5.948479 13.737886-12.911054 27.096125-20.72502 39.701211l-10.619872 17.206894 58.70196 58.71424-75.698053 75.67247-58.678424-58.678424-17.231453 10.574846c-12.935614 7.977695-26.15366 14.82259-41.590234 21.574365l-7.741311 3.114944c-13.973246 5.522784-28.371164 10.055007-42.792619 13.501502l-19.663852 4.672416 0 82.895989L458.419176 905.375276l0-82.895989-19.660782-4.672416c-14.918781-3.587712-29.315676-8.167007-45.319162-14.494109l-7.129374-2.972705c-13.595646-5.901407-26.907836-12.887518-39.676651-20.723997l-17.207917-10.574846-58.678424 58.678424-75.697029-75.67247 58.678424-58.71424-10.598382-17.206894c-7.907087-12.769838-14.870686-26.223245-21.314445-41.069371l-3.351328-8.28571c-5.499248-13.878079-10.007935-28.230971-13.430894-42.723034l-4.695952-19.638269-82.966597 0L117.370663 457.390241l82.966597 0 4.695952-19.637246c3.517103-14.82259 8.167007-29.433356 14.186094-44.587498l3.233648-7.765871c5.877871-13.595646 12.841469-26.954909 20.700461-39.724747l10.620895-17.206894-58.678424-58.655911 75.697029-75.67247 58.654888 58.654888 17.231453-10.598382c12.746302-7.860015 26.15366-14.800078 40.998763-21.219277l8.451486-3.470031c13.594623-5.405103 27.945469-9.936303 42.627866-13.453407l19.684318-4.626367L458.441689 116.435872l107.066481 0 0 82.991156 19.683295 4.626367c14.730493 3.493567 28.940123 8.001231 44.612057 14.186094l7.743358 3.257184c13.760398 5.947456 27.143197 12.911054 39.747259 20.700461l17.206894 10.598382 58.654888-58.654888 75.720565 75.67247-58.678424 58.655911 10.5728 17.183358c7.883551 12.81691 14.869662 26.293853 21.363564 41.259706l3.372817 8.167007c5.477758 13.902638 10.009981 28.253484 13.455453 42.627866l4.626367 19.684318 83.013669 0L906.602731 564.40965z" fill="#5D5D5D" p-id="6695"></path></svg>